<?xml version="1.0" encoding="UTF-8"?>
<svg id="logo" xmlns="http://www.w3.org/2000/svg" viewBox="0 0 744.87 1000">
  <path id="right" d="m497.04,743.73l-67.66-68.46c.23-.19.47-.37.7-.56,15.38-13.14,25.12-32.67,25.12-54.43,0-39.52-32.01-71.53-71.49-71.53-21.44,0-40.68,9.46-53.78,24.37-.23.28-.51.56-.75.89l-71.53-72.37,71.39-70.37c13.14,15.38,32.67,25.12,54.43,25.12,39.52,0,71.53-32.01,71.53-71.49,0-21.44-9.46-40.68-24.37-53.78l70.93-69.9,243.3,240.42-100.33,98c24.33,1.58,43.53,21.81,43.53,46.46s-20.83,46.6-46.55,46.6-45.48-19.81-46.51-44.64l-97.96,95.67Z" style="fill: #00a2ea;"/>
  <path id="bottom" d="m484.94,760.08l-68.46,67.66c-.19-.23-.37-.47-.56-.7-13.14-15.38-32.67-25.12-54.43-25.12-39.52,0-71.53,32.01-71.53,71.49,0,21.44,9.46,40.68,24.37,53.78.28.23.56.51.89.75l-72.37,71.53-70.37-71.39c15.38-13.14,25.12-32.67,25.12-54.43,0-39.52-32.01-71.53-71.49-71.53-21.44,0-40.68,9.46-53.78,24.37L2.43,755.56l96.42-97.58c-25.54-.19-46.18-21.02-46.18-46.55s20.83-46.55,46.55-46.55,46.04,20.32,46.55,45.62l97.07-98.24,98,100.33c1.58-24.33,21.81-43.53,46.46-43.53s46.6,20.83,46.6,46.55-19.81,45.48-44.64,46.51l95.67,97.96Z" style="fill: #044fa0;"/>
  <path id="top" d="m0,239.92l68.46-67.66c.19.23.37.47.56.7,13.14,15.38,32.67,25.12,54.43,25.12,39.52,0,71.53-32.01,71.53-71.49,0-21.44-9.46-40.68-24.37-53.78-.28-.23-.56-.51-.89-.75L242.09.53l240.42,243.91-96.42,97.58c25.54.19,46.18,21.02,46.18,46.55s-20.83,46.55-46.55,46.55-46.04-20.32-46.55-45.62l-97.07,98.24-98-100.33c-1.58,24.33-21.81,43.53-46.46,43.53s-46.6-20.83-46.6-46.55,19.81-45.48,44.64-46.51L0,239.92Z" style="fill: #0070ba;"/>
</svg>